<?xml version="1.0" encoding="utf-8"?>
<!-- Generator: Adobe Illustrator 24.3.0, SVG Export Plug-In . SVG Version: 6.00 Build 0)  -->
<svg version="1.1" id="Layer_1" xmlns="http://www.w3.org/2000/svg" xmlns:xlink="http://www.w3.org/1999/xlink" x="0px" y="0px"
	 viewBox="0 0 512 512" style="enable-background:new 0 0 512 512;" xml:space="preserve">
<g>
	<path d="M460.8,166.4H317.12l28.75-86.2c5.17-15.55,2.55-32.8-7.05-46.12c-9.6-13.3-25.15-21.28-41.58-21.28H256
		c-7.62,0-14.8,3.37-19.7,9.22L115.97,166.4H51.2C22.95,166.4,0,189.38,0,217.6V448c0,28.25,22.95,51.2,51.2,51.2H128h263.85
		c21.23,0,40.48-13.33,47.95-33.23l70.58-188.18c1.08-2.88,1.62-5.92,1.62-9v-51.2C512,189.38,489.02,166.4,460.8,166.4z
		 M51.2,217.6h51.2V448H51.2V217.6z M460.8,264.17L391.85,448H153.6V201.27L267.98,64h29.32l-39.97,119.9
		c-2.65,7.8-1.3,16.38,3.5,23.05c4.82,6.73,12.55,10.65,20.77,10.65h179.2V264.17z"/>
</g>
</svg>
